<?xml version="1.0" encoding="utf-8" ?>
<svg xmlns="http://www.w3.org/2000/svg" xmlns:xlink="http://www.w3.org/1999/xlink" width="512" height="512">
	<path fill="#004AED" d="M254.552 13.9738L257.338 13.9553C422.767 14.1206 539.034 182.793 482.664 336.436C448.396 429.836 357.251 495.654 257.594 495.248L251.28 495.255C241.338 495.241 231.581 494.185 221.75 492.764C140.001 480.94 69.664 427.764 36.3436 352.503L28.3981 333.085C22.0364 315.105 18.2471 296.82 16.2756 277.885L15.5451 271.696C7.92751 169.008 71.1612 68.2979 167.506 31.3186L183.683 25.4104C206.36 18.1782 230.739 13.9142 254.552 13.9738ZM245.596 110.268C230.411 110.811 165.937 117.525 157.003 128.344C155.714 129.906 155.614 137.424 155.365 139.758C152.787 163.912 136.88 181.436 114.501 189.618C109.658 191.389 103.169 192.447 102.231 197.945L99.1777 232.334C97.9704 259.233 99.1154 286.061 105.597 312.323C113.309 343.571 125.512 368.653 153.509 385.437C175.233 398.46 201.114 404.621 226.125 407.256L238.553 408.486L266.437 408.648C304.408 407.679 352.551 396.728 379.058 368.911C402.868 343.924 411.424 300.284 413.184 266.771L413.242 235.375C413.196 233.434 412.855 231.551 412.731 229.625L410.936 207.268C409.853 197.366 411.46 195.332 401.281 191.009L391.816 187.041C372.51 178.46 361.265 162.659 356.979 141.898C356.244 138.341 356.447 134.691 355.817 131.125L355.748 130.711C354.729 124.909 348.193 123.166 343.377 121.803L327.148 118.036C312.824 115.185 298.663 112.719 284.125 111.232L276.331 110.37C266.155 109.702 255.797 110.557 245.596 110.268Z"/>
	<path fill="#004AED" d="M243.023 129.837C271.13 129.152 297.059 131.325 324.664 137.414L333.527 139.407C338.275 140.385 338.055 139.421 338.464 144.604C340.532 170.87 361.814 196.659 385.898 205.783L391.366 207.595C392.288 212.19 392.625 216.812 393.022 221.473L394.123 235.103L394.259 263.751C393.242 290.943 385.677 332.879 366.697 354.079C343.74 379.722 301.887 387.391 269.062 389.251L249.699 389.427C242.137 389.302 234.354 388.464 226.836 387.573C175.357 381.472 140.9 367.764 125.664 312.971C117.081 282.101 115.707 249.588 119.366 217.875C119.738 214.646 120.229 211.475 120.287 208.22L129.816 204.379C155.694 192.89 169.81 167.587 174.627 140.818C188.745 134.452 225.672 130.42 243.023 129.837ZM252.292 175.342C233.736 177.627 215.72 190.557 210.983 209.211C209.345 215.659 209.457 222.669 209.473 229.27C196.177 229.6 187.526 235.957 187.51 249.604L187.549 323.338C187.988 331.794 195.95 338.981 204.052 339.868C210.648 340.591 217.656 340.148 224.296 340.133L259.688 340.121L289.519 340.126C303.589 340.124 323.125 342.408 324.398 322.188C324.686 317.618 324.505 312.943 324.507 308.36L324.462 261.046C324.413 243.361 324 230.013 303.355 229.247C302.967 223.157 302.813 217.061 301.551 211.06C296.841 188.674 275.379 174.149 253 175.267L252.292 175.342Z"/>
	<path fill="#004AED" d="M254.559 261.089C263.128 260.303 270.961 267.017 272.759 275.216L272.856 275.674C274.315 282.341 270.967 289.235 265.348 292.941L265.068 293.123C265.476 295.632 266.538 308.622 265.446 310.973C263.563 311.496 261.269 311.269 259.312 311.273L251.31 311.272C250.189 311.27 248.56 311.473 247.51 311.129C246.153 307.477 246.26 297.656 246.747 293.673L246.439 292.957C234.398 283.205 237.723 262.646 254.559 261.089Z"/>
	<path fill="#004AED" d="M254.728 194.591C266.545 193.734 278.237 201.821 281.875 213.091C282.761 215.837 284.021 225.691 282.619 228.525C280.225 229.074 277.189 228.755 274.716 228.757L258.796 228.752L229.587 228.659C229.109 211.008 235.325 196.528 254.728 194.591Z"/>
</svg>
